<mxfile host="app.diagrams.net" modified="2022-03-22T16:31:56.501Z" agent="5.0 (Windows NT 10.0; Win64; x64) AppleWebKit/537.36 (KHTML, like Gecko) Chrome/99.0.4844.74 Safari/537.36" etag="xGlRFNhE119AKQdI_i2G" version="17.1.4" type="github">
  <diagram id="C5RBs43oDa-KdzZeNtuy" name="Page-1">
    <mxGraphModel dx="1935" dy="486" grid="1" gridSize="10" guides="1" tooltips="1" connect="1" arrows="1" fold="1" page="1" pageScale="1" pageWidth="827" pageHeight="1169" math="0" shadow="0">
      <root>
        <mxCell id="WIyWlLk6GJQsqaUBKTNV-0" />
        <mxCell id="WIyWlLk6GJQsqaUBKTNV-1" parent="WIyWlLk6GJQsqaUBKTNV-0" />
        <mxCell id="zkfFHV4jXpPFQw0GAbJ--16" value="" style="endArrow=block;endSize=10;endFill=0;shadow=0;strokeWidth=1;rounded=0;edgeStyle=elbowEdgeStyle;elbow=vertical;entryX=0.506;entryY=1.002;entryDx=0;entryDy=0;entryPerimeter=0;exitX=0.554;exitY=0.021;exitDx=0;exitDy=0;exitPerimeter=0;" parent="WIyWlLk6GJQsqaUBKTNV-1" source="LOTQNSIhI1i5Ab3w6WXn-11" target="LOTQNSIhI1i5Ab3w6WXn-4" edge="1">
          <mxGeometry width="160" relative="1" as="geometry">
            <mxPoint x="210" y="373" as="sourcePoint" />
            <mxPoint x="310" y="271" as="targetPoint" />
          </mxGeometry>
        </mxCell>
        <mxCell id="LOTQNSIhI1i5Ab3w6WXn-0" value="Publisher ‏ : ‎ Manning; 2nd edition (15 November 2018)&#xa;Language ‏ : ‎ English&#xa;Paperback ‏ : ‎ 592 pages&#xa;ISBN-10 ‏ : ‎ 1617293563&#xa;ISBN-13 ‏ : ‎ 978-1617293566&#xa;Item Weight ‏ : ‎ 1 kg 100 g&#xa;Dimensions ‏ : ‎ 18.75 x 3.05 x 23.5 cm&#xa;Country of Origin ‏ : ‎ United Kingdom" style="text;whiteSpace=wrap;html=1;" parent="WIyWlLk6GJQsqaUBKTNV-1" vertex="1">
          <mxGeometry x="530" y="480" width="320" height="120" as="geometry" />
        </mxCell>
        <mxCell id="LOTQNSIhI1i5Ab3w6WXn-1" value="Book" style="swimlane;fontStyle=1;align=center;verticalAlign=top;childLayout=stackLayout;horizontal=1;startSize=26;horizontalStack=0;resizeParent=1;resizeParentMax=0;resizeLast=0;collapsible=1;marginBottom=0;" parent="WIyWlLk6GJQsqaUBKTNV-1" vertex="1">
          <mxGeometry x="-300" y="43" width="160" height="220" as="geometry">
            <mxRectangle x="-140" y="44" width="60" height="26" as="alternateBounds" />
          </mxGeometry>
        </mxCell>
        <mxCell id="LOTQNSIhI1i5Ab3w6WXn-2" value="- bookName : String&#xa;- publisher : String&#xa;- language : String&#xa;- genre : String&#xa;- price : double&#xa;&#xa;" style="text;strokeColor=none;fillColor=none;align=left;verticalAlign=top;spacingLeft=4;spacingRight=4;overflow=hidden;rotatable=0;points=[[0,0.5],[1,0.5]];portConstraint=eastwest;" parent="LOTQNSIhI1i5Ab3w6WXn-1" vertex="1">
          <mxGeometry y="26" width="160" height="74" as="geometry" />
        </mxCell>
        <mxCell id="LOTQNSIhI1i5Ab3w6WXn-3" value="" style="line;strokeWidth=1;fillColor=none;align=left;verticalAlign=middle;spacingTop=-1;spacingLeft=3;spacingRight=3;rotatable=0;labelPosition=right;points=[];portConstraint=eastwest;" parent="LOTQNSIhI1i5Ab3w6WXn-1" vertex="1">
          <mxGeometry y="100" width="160" height="10" as="geometry" />
        </mxCell>
        <mxCell id="LOTQNSIhI1i5Ab3w6WXn-5" value="+ open(): void" style="text;strokeColor=none;fillColor=none;align=left;verticalAlign=top;spacingLeft=4;spacingRight=4;overflow=hidden;rotatable=0;points=[[0,0.5],[1,0.5]];portConstraint=eastwest;" parent="LOTQNSIhI1i5Ab3w6WXn-1" vertex="1">
          <mxGeometry y="110" width="160" height="20" as="geometry" />
        </mxCell>
        <mxCell id="LOTQNSIhI1i5Ab3w6WXn-4" value="+ close(): void&#xa;&#xa;+ getNoOfPages() : int&#xa;&#xa;+ bookmarkPage(int pageNo) : void" style="text;strokeColor=none;fillColor=none;align=left;verticalAlign=top;spacingLeft=4;spacingRight=4;overflow=hidden;rotatable=0;points=[[0,0.5],[1,0.5]];portConstraint=eastwest;" parent="LOTQNSIhI1i5Ab3w6WXn-1" vertex="1">
          <mxGeometry y="130" width="160" height="90" as="geometry" />
        </mxCell>
        <mxCell id="LOTQNSIhI1i5Ab3w6WXn-7" value="HardCopy" style="swimlane;fontStyle=1;align=center;verticalAlign=top;childLayout=stackLayout;horizontal=1;startSize=26;horizontalStack=0;resizeParent=1;resizeParentMax=0;resizeLast=0;collapsible=1;marginBottom=0;" parent="WIyWlLk6GJQsqaUBKTNV-1" vertex="1">
          <mxGeometry x="-380" y="430" width="160" height="104" as="geometry" />
        </mxCell>
        <mxCell id="LOTQNSIhI1i5Ab3w6WXn-8" value="- itemWeight : int&#xa;- noOfPages : int" style="text;strokeColor=none;fillColor=none;align=left;verticalAlign=top;spacingLeft=4;spacingRight=4;overflow=hidden;rotatable=0;points=[[0,0.5],[1,0.5]];portConstraint=eastwest;" parent="LOTQNSIhI1i5Ab3w6WXn-7" vertex="1">
          <mxGeometry y="26" width="160" height="44" as="geometry" />
        </mxCell>
        <mxCell id="LOTQNSIhI1i5Ab3w6WXn-9" value="" style="line;strokeWidth=1;fillColor=none;align=left;verticalAlign=middle;spacingTop=-1;spacingLeft=3;spacingRight=3;rotatable=0;labelPosition=right;points=[];portConstraint=eastwest;" parent="LOTQNSIhI1i5Ab3w6WXn-7" vertex="1">
          <mxGeometry y="70" width="160" height="8" as="geometry" />
        </mxCell>
        <mxCell id="LOTQNSIhI1i5Ab3w6WXn-10" value="+ binding () : void" style="text;strokeColor=none;fillColor=none;align=left;verticalAlign=top;spacingLeft=4;spacingRight=4;overflow=hidden;rotatable=0;points=[[0,0.5],[1,0.5]];portConstraint=eastwest;" parent="LOTQNSIhI1i5Ab3w6WXn-7" vertex="1">
          <mxGeometry y="78" width="160" height="26" as="geometry" />
        </mxCell>
        <mxCell id="LOTQNSIhI1i5Ab3w6WXn-11" value="AudioBook" style="swimlane;fontStyle=1;align=center;verticalAlign=top;childLayout=stackLayout;horizontal=1;startSize=26;horizontalStack=0;resizeParent=1;resizeParentMax=0;resizeLast=0;collapsible=1;marginBottom=0;" parent="WIyWlLk6GJQsqaUBKTNV-1" vertex="1">
          <mxGeometry x="-110" y="430" width="160" height="100" as="geometry" />
        </mxCell>
        <mxCell id="LOTQNSIhI1i5Ab3w6WXn-12" value="+ listeningLength : int" style="text;strokeColor=none;fillColor=none;align=left;verticalAlign=top;spacingLeft=4;spacingRight=4;overflow=hidden;rotatable=0;points=[[0,0.5],[1,0.5]];portConstraint=eastwest;" parent="LOTQNSIhI1i5Ab3w6WXn-11" vertex="1">
          <mxGeometry y="26" width="160" height="26" as="geometry" />
        </mxCell>
        <mxCell id="LOTQNSIhI1i5Ab3w6WXn-13" value="" style="line;strokeWidth=1;fillColor=none;align=left;verticalAlign=middle;spacingTop=-1;spacingLeft=3;spacingRight=3;rotatable=0;labelPosition=right;points=[];portConstraint=eastwest;" parent="LOTQNSIhI1i5Ab3w6WXn-11" vertex="1">
          <mxGeometry y="52" width="160" height="8" as="geometry" />
        </mxCell>
        <mxCell id="LOTQNSIhI1i5Ab3w6WXn-14" value="+ play () : void&#xa;+ pause() : void" style="text;strokeColor=none;fillColor=none;align=left;verticalAlign=top;spacingLeft=4;spacingRight=4;overflow=hidden;rotatable=0;points=[[0,0.5],[1,0.5]];portConstraint=eastwest;" parent="LOTQNSIhI1i5Ab3w6WXn-11" vertex="1">
          <mxGeometry y="60" width="160" height="40" as="geometry" />
        </mxCell>
        <mxCell id="LOTQNSIhI1i5Ab3w6WXn-21" value="Customer" style="swimlane;fontStyle=2;align=center;verticalAlign=top;childLayout=stackLayout;horizontal=1;startSize=26;horizontalStack=0;resizeParent=1;resizeLast=0;collapsible=1;marginBottom=0;rounded=0;shadow=0;strokeWidth=1;" parent="WIyWlLk6GJQsqaUBKTNV-1" vertex="1">
          <mxGeometry x="-757" y="99" width="160" height="148" as="geometry">
            <mxRectangle x="230" y="140" width="160" height="26" as="alternateBounds" />
          </mxGeometry>
        </mxCell>
        <mxCell id="LOTQNSIhI1i5Ab3w6WXn-22" value="- customerName : String" style="text;align=left;verticalAlign=top;spacingLeft=4;spacingRight=4;overflow=hidden;rotatable=0;points=[[0,0.5],[1,0.5]];portConstraint=eastwest;" parent="LOTQNSIhI1i5Ab3w6WXn-21" vertex="1">
          <mxGeometry y="26" width="160" height="26" as="geometry" />
        </mxCell>
        <mxCell id="LOTQNSIhI1i5Ab3w6WXn-24" value="- emailAddress : String" style="text;align=left;verticalAlign=top;spacingLeft=4;spacingRight=4;overflow=hidden;rotatable=0;points=[[0,0.5],[1,0.5]];portConstraint=eastwest;rounded=0;shadow=0;html=0;" parent="LOTQNSIhI1i5Ab3w6WXn-21" vertex="1">
          <mxGeometry y="52" width="160" height="26" as="geometry" />
        </mxCell>
        <mxCell id="LOTQNSIhI1i5Ab3w6WXn-25" value="" style="line;html=1;strokeWidth=1;align=left;verticalAlign=middle;spacingTop=-1;spacingLeft=3;spacingRight=3;rotatable=0;labelPosition=right;points=[];portConstraint=eastwest;" parent="LOTQNSIhI1i5Ab3w6WXn-21" vertex="1">
          <mxGeometry y="78" width="160" height="8" as="geometry" />
        </mxCell>
        <mxCell id="LOTQNSIhI1i5Ab3w6WXn-26" value="- getDetails() : String" style="text;align=left;verticalAlign=top;spacingLeft=4;spacingRight=4;overflow=hidden;rotatable=0;points=[[0,0.5],[1,0.5]];portConstraint=eastwest;" parent="LOTQNSIhI1i5Ab3w6WXn-21" vertex="1">
          <mxGeometry y="86" width="160" height="26" as="geometry" />
        </mxCell>
        <mxCell id="LOTQNSIhI1i5Ab3w6WXn-27" value="purchase" style="endArrow=none;startArrow=none;endFill=0;startFill=0;endSize=8;html=1;verticalAlign=bottom;labelBackgroundColor=none;strokeWidth=1;exitX=1;exitY=0.5;exitDx=0;exitDy=0;entryX=0;entryY=0.5;entryDx=0;entryDy=0;" parent="WIyWlLk6GJQsqaUBKTNV-1" source="LOTQNSIhI1i5Ab3w6WXn-24" target="LOTQNSIhI1i5Ab3w6WXn-5" edge="1">
          <mxGeometry width="160" relative="1" as="geometry">
            <mxPoint x="20" y="310" as="sourcePoint" />
            <mxPoint x="180" y="310" as="targetPoint" />
          </mxGeometry>
        </mxCell>
        <mxCell id="LOTQNSIhI1i5Ab3w6WXn-28" value="0 .. *" style="edgeLabel;html=1;align=center;verticalAlign=middle;resizable=0;points=[];" parent="LOTQNSIhI1i5Ab3w6WXn-27" vertex="1" connectable="0">
          <mxGeometry x="-0.6199" y="1" relative="1" as="geometry">
            <mxPoint as="offset" />
          </mxGeometry>
        </mxCell>
        <mxCell id="LOTQNSIhI1i5Ab3w6WXn-29" value="0..*" style="edgeLabel;html=1;align=center;verticalAlign=middle;resizable=0;points=[];" parent="LOTQNSIhI1i5Ab3w6WXn-27" vertex="1" connectable="0">
          <mxGeometry x="0.6598" y="-1" relative="1" as="geometry">
            <mxPoint as="offset" />
          </mxGeometry>
        </mxCell>
        <mxCell id="LOTQNSIhI1i5Ab3w6WXn-31" value="" style="endArrow=block;endSize=10;endFill=0;shadow=0;strokeWidth=1;rounded=0;edgeStyle=elbowEdgeStyle;elbow=vertical;exitX=0.5;exitY=0;exitDx=0;exitDy=0;entryX=0.511;entryY=0.993;entryDx=0;entryDy=0;entryPerimeter=0;" parent="WIyWlLk6GJQsqaUBKTNV-1" source="LOTQNSIhI1i5Ab3w6WXn-7" target="LOTQNSIhI1i5Ab3w6WXn-4" edge="1">
          <mxGeometry width="160" relative="1" as="geometry">
            <mxPoint x="68.6400000000001" y="391.80600000000004" as="sourcePoint" />
            <mxPoint x="-60" y="270" as="targetPoint" />
          </mxGeometry>
        </mxCell>
        <mxCell id="Pa_zAEwJJQtFI5NzcBPQ-0" value="&lt;br&gt;&lt;b&gt;Author&lt;/b&gt;" style="swimlane;fontStyle=0;align=center;verticalAlign=top;childLayout=stackLayout;horizontal=1;startSize=55;horizontalStack=0;resizeParent=1;resizeParentMax=0;resizeLast=0;collapsible=0;marginBottom=0;html=1;" vertex="1" parent="WIyWlLk6GJQsqaUBKTNV-1">
          <mxGeometry x="-39" y="43" width="190" height="90" as="geometry" />
        </mxCell>
        <mxCell id="Pa_zAEwJJQtFI5NzcBPQ-2" value="- authName : String&lt;br&gt;- authEmail - String&lt;br&gt;-" style="text;html=1;strokeColor=none;fillColor=none;align=left;verticalAlign=middle;spacingLeft=4;spacingRight=4;overflow=hidden;rotatable=0;points=[[0,0.5],[1,0.5]];portConstraint=eastwest;" vertex="1" parent="Pa_zAEwJJQtFI5NzcBPQ-0">
          <mxGeometry y="55" width="190" height="35" as="geometry" />
        </mxCell>
        <mxCell id="Pa_zAEwJJQtFI5NzcBPQ-11" value="" style="endArrow=classic;html=1;rounded=0;" edge="1" parent="WIyWlLk6GJQsqaUBKTNV-1">
          <mxGeometry relative="1" as="geometry">
            <mxPoint x="-139" y="80" as="sourcePoint" />
            <mxPoint x="-39" y="80" as="targetPoint" />
          </mxGeometry>
        </mxCell>
        <mxCell id="Pa_zAEwJJQtFI5NzcBPQ-12" value="1" style="edgeLabel;resizable=0;html=1;align=center;verticalAlign=middle;" connectable="0" vertex="1" parent="Pa_zAEwJJQtFI5NzcBPQ-11">
          <mxGeometry relative="1" as="geometry" />
        </mxCell>
        <mxCell id="Pa_zAEwJJQtFI5NzcBPQ-16" value="CreditCard    " style="swimlane;fontStyle=1;align=center;verticalAlign=top;childLayout=stackLayout;horizontal=1;startSize=26;horizontalStack=0;resizeParent=1;resizeParentMax=0;resizeLast=0;collapsible=1;marginBottom=0;" vertex="1" parent="WIyWlLk6GJQsqaUBKTNV-1">
          <mxGeometry x="-759" y="359" width="160" height="112" as="geometry" />
        </mxCell>
        <mxCell id="Pa_zAEwJJQtFI5NzcBPQ-17" value="-cardNumber : int&#xa;-balance : int" style="text;strokeColor=none;fillColor=none;align=left;verticalAlign=top;spacingLeft=4;spacingRight=4;overflow=hidden;rotatable=0;points=[[0,0.5],[1,0.5]];portConstraint=eastwest;" vertex="1" parent="Pa_zAEwJJQtFI5NzcBPQ-16">
          <mxGeometry y="26" width="160" height="44" as="geometry" />
        </mxCell>
        <mxCell id="Pa_zAEwJJQtFI5NzcBPQ-18" value="" style="line;strokeWidth=1;fillColor=none;align=left;verticalAlign=middle;spacingTop=-1;spacingLeft=3;spacingRight=3;rotatable=0;labelPosition=right;points=[];portConstraint=eastwest;" vertex="1" parent="Pa_zAEwJJQtFI5NzcBPQ-16">
          <mxGeometry y="70" width="160" height="8" as="geometry" />
        </mxCell>
        <mxCell id="Pa_zAEwJJQtFI5NzcBPQ-19" value="-checkBalance() : int" style="text;strokeColor=none;fillColor=none;align=left;verticalAlign=top;spacingLeft=4;spacingRight=4;overflow=hidden;rotatable=0;points=[[0,0.5],[1,0.5]];portConstraint=eastwest;" vertex="1" parent="Pa_zAEwJJQtFI5NzcBPQ-16">
          <mxGeometry y="78" width="160" height="34" as="geometry" />
        </mxCell>
        <mxCell id="Pa_zAEwJJQtFI5NzcBPQ-21" value="" style="line;strokeWidth=2;direction=south;html=1;" vertex="1" parent="WIyWlLk6GJQsqaUBKTNV-1">
          <mxGeometry x="-682" y="247" width="10" height="113" as="geometry" />
        </mxCell>
        <mxCell id="Pa_zAEwJJQtFI5NzcBPQ-22" value="Order" style="swimlane;fontStyle=0;childLayout=stackLayout;horizontal=1;startSize=26;fillColor=none;horizontalStack=0;resizeParent=1;resizeParentMax=0;resizeLast=0;collapsible=1;marginBottom=0;" vertex="1" parent="WIyWlLk6GJQsqaUBKTNV-1">
          <mxGeometry x="-510" y="263" width="120" height="78" as="geometry" />
        </mxCell>
        <mxCell id="Pa_zAEwJJQtFI5NzcBPQ-23" value="+ date : String" style="text;strokeColor=none;fillColor=none;align=left;verticalAlign=top;spacingLeft=4;spacingRight=4;overflow=hidden;rotatable=0;points=[[0,0.5],[1,0.5]];portConstraint=eastwest;" vertex="1" parent="Pa_zAEwJJQtFI5NzcBPQ-22">
          <mxGeometry y="26" width="120" height="26" as="geometry" />
        </mxCell>
        <mxCell id="Pa_zAEwJJQtFI5NzcBPQ-24" value="+ totalAmount: doble" style="text;strokeColor=none;fillColor=none;align=left;verticalAlign=top;spacingLeft=4;spacingRight=4;overflow=hidden;rotatable=0;points=[[0,0.5],[1,0.5]];portConstraint=eastwest;" vertex="1" parent="Pa_zAEwJJQtFI5NzcBPQ-22">
          <mxGeometry y="52" width="120" height="26" as="geometry" />
        </mxCell>
        <mxCell id="Pa_zAEwJJQtFI5NzcBPQ-26" value="" style="endArrow=none;dashed=1;html=1;dashPattern=1 3;strokeWidth=2;rounded=0;" edge="1" parent="WIyWlLk6GJQsqaUBKTNV-1">
          <mxGeometry width="50" height="50" relative="1" as="geometry">
            <mxPoint x="-450" y="260" as="sourcePoint" />
            <mxPoint x="-450" y="160" as="targetPoint" />
            <Array as="points">
              <mxPoint x="-450" y="200" />
            </Array>
          </mxGeometry>
        </mxCell>
        <mxCell id="Pa_zAEwJJQtFI5NzcBPQ-27" value="" style="endArrow=classic;html=1;rounded=0;entryX=0.575;entryY=1.115;entryDx=0;entryDy=0;entryPerimeter=0;" edge="1" parent="WIyWlLk6GJQsqaUBKTNV-1" target="Pa_zAEwJJQtFI5NzcBPQ-24">
          <mxGeometry width="50" height="50" relative="1" as="geometry">
            <mxPoint x="-597" y="411" as="sourcePoint" />
            <mxPoint x="-440" y="350" as="targetPoint" />
            <Array as="points">
              <mxPoint x="-440" y="410" />
            </Array>
          </mxGeometry>
        </mxCell>
      </root>
    </mxGraphModel>
  </diagram>
</mxfile>
